<?xml version="1.0" encoding="UTF-8"?>
<svg id="Layer_1" xmlns="http://www.w3.org/2000/svg" version="1.1" viewBox="0 0 384 384">
  <!-- Generator: Adobe Illustrator 29.3.1, SVG Export Plug-In . SVG Version: 2.1.0 Build 151)  -->
  <path d="M332.9,50.9l41.9,9.4c6.2,2.6,7.8,9.8,3.2,14.8l-52.7,53c32.4,60.5,25.5,135.4-17.3,188.9-61.2,76.3-174.8,85.9-247.8,20.3C-19.1,265.8-14.8,139.5,69.3,74c53.4-41.7,126.9-47.8,186.7-15.7l52-51.9c4.9-4.9,12.7-4.3,15.6,2.4l9.3,42ZM310.2,30.8l-2.2,1.1-42.7,43.5,5.2,25.1c1.3,1.3,20.6-23.3,26.6-24s12.3,7.3,8.3,14.3-21.4,20.5-21.4,22c.7,1.1,1.6.9,2.6,1.2,3.5,1,18.2,4.6,21,4.5s1.6-.1,2.2-.7l43-43.2c.3-1.8-.8-.9-1.8-1.1-8.6-1.9-19.5-3.4-27.7-6s-5.5-2.8-6.9-7.3c-2.9-9.1-4-20-6.2-29.4ZM246.4,73.7c-84-45-189.5-1.5-218,89.1-35.7,113.3,64.8,222.1,180.2,196.3,97.6-21.8,148.4-132.8,101.5-221.6l-40.9-8.8c-1.9-.4-8.4,6.4-8.3,7.4,52.1,60.9,24.4,157.6-51.9,181.4-96.5,30.3-181.8-71.5-134.7-161.2,33.7-64.1,118.9-80,174.1-33.3l7.2-7.8-9.1-41.5ZM165.6,114.3c-40.1,3.3-75.6,34.8-84.1,74-15.7,72.2,51.6,134.3,122.2,112,63.5-20.1,87.2-100.5,44-151.7l-28,28.2c16.9,26,11.7,61-14.4,78.6-31,20.9-74.5,4.9-84.1-31.1-13.6-50.7,42.6-89.6,85.3-60.2l28-28c.3-1.6-11.6-9-13.7-10.2-16.7-9.3-36.2-13.2-55.3-11.6ZM206.9,190.5c-1.1-.3-1.2.3-1.9.7-8.1,5.6-17.4,20.3-25.4,25.5s-18.6-4.7-11.2-14.3,25.1-23.3,25.1-25.1c-22.9-14.6-53.9,1.6-56.1,28.5-2.5,30,29.6,50.9,55.9,35.7,17.9-10.3,23.5-33,13.7-51.1Z"/>
</svg>