<?xml version="1.0" encoding="UTF-8"?>
<svg id="Layer_1" data-name="Layer 1" xmlns="http://www.w3.org/2000/svg" viewBox="0 0 1295.19 262.09">
  <defs>
    <style>
      .cls-1 {
        fill: #fff;
      }

      .cls-2 {
        fill: #4caf50;
      }
    </style>
  </defs>
  <g>
    <path class="cls-1" d="M321.02,69.11h87.74v15.4h-78.46l7.17-7.17v139.41h-16.45V69.11ZM329.25,135.34h75.5v15.19h-75.5v-15.19Z"/>
    <path class="cls-1" d="M430.91,69.11h15.4v147.63h-15.4V69.11Z"/>
    <path class="cls-1" d="M494.39,212.43c-8.58-4.99-15.36-11.77-20.35-20.35-4.99-8.57-7.49-17.93-7.49-28.05s2.49-19.47,7.49-28.05c4.99-8.57,11.77-15.36,20.35-20.35,8.58-4.99,17.93-7.49,28.05-7.49s18.7,2.46,26.15,7.38c7.45,4.92,13.08,11.64,16.87,20.14,3.8,8.51,5.7,17.96,5.7,28.37s-1.9,19.86-5.7,28.37c-3.8,8.51-9.42,15.22-16.87,20.14-7.45,4.92-16.17,7.38-26.15,7.38s-19.48-2.5-28.05-7.49ZM543.53,199.45c6.33-3.65,11.35-8.61,15.08-14.87,3.72-6.25,5.59-13.11,5.59-20.56s-1.87-14.31-5.59-20.56c-3.73-6.25-8.75-11.21-15.08-14.87-6.33-3.65-13.29-5.48-20.88-5.48s-14.31,1.79-20.56,5.38c-6.26,3.59-11.18,8.51-14.76,14.76-3.58,6.26-5.38,13.18-5.38,20.77s1.79,14.34,5.38,20.67c3.59,6.33,8.51,11.28,14.76,14.87,6.25,3.59,13.11,5.38,20.56,5.38s14.55-1.83,20.88-5.48ZM564.2,111.3h15.4v105.45h-15.4v-105.45Z"/>
    <path class="cls-1" d="M627.05,212.43c-8.58-4.99-15.36-11.77-20.35-20.35-4.99-8.57-7.49-17.93-7.49-28.05s2.49-19.47,7.49-28.05c4.99-8.57,11.77-15.36,20.35-20.35,8.58-4.99,17.93-7.49,28.05-7.49s18.91,2.46,26.36,7.38c7.45,4.92,13.11,11.64,16.98,20.14,3.87,8.51,5.8,17.96,5.8,28.37s-1.93,19.86-5.8,28.37c-3.87,8.51-9.53,15.22-16.98,20.14-7.45,4.92-16.24,7.38-26.36,7.38s-19.48-2.5-28.05-7.49ZM631.79,258.19c-7.24-2.6-13.68-6.43-19.3-11.49l10.12-11.81c4.5,3.8,9.49,6.82,14.97,9.07,5.48,2.25,11.39,3.37,17.72,3.37,8.01-.14,15.11-2.18,21.3-6.12,6.19-3.94,11.11-9.7,14.76-17.29,3.66-7.59,5.48-16.52,5.48-26.79v-85.84h15.4v85.84c0,13.08-2.5,24.53-7.49,34.38-4.99,9.84-11.78,17.4-20.35,22.67-8.58,5.27-18.28,7.91-29.11,7.91-8.44,0-16.28-1.3-23.52-3.9ZM676.19,199.45c6.33-3.65,11.35-8.61,15.08-14.87,3.72-6.25,5.59-13.11,5.59-20.56s-1.87-14.31-5.59-20.56c-3.73-6.25-8.75-11.21-15.08-14.87-6.33-3.65-13.29-5.48-20.88-5.48s-14.31,1.79-20.56,5.38c-6.26,3.59-11.18,8.54-14.76,14.87-3.58,6.33-5.38,13.22-5.38,20.67s1.79,14.34,5.38,20.67c3.59,6.33,8.51,11.28,14.76,14.87,6.25,3.59,13.11,5.38,20.56,5.38s14.55-1.83,20.88-5.48Z"/>
    <path class="cls-1" d="M772.36,209.58c-11.81-6.89-21.16-16.24-28.05-28.05-6.89-11.81-10.33-24.68-10.33-38.6s3.44-26.79,10.33-38.6c6.89-11.81,16.24-21.16,28.05-28.05,11.81-6.89,24.75-10.33,38.81-10.33s26.75,3.45,38.49,10.33c11.74,6.89,21.05,16.24,27.95,28.05,6.89,11.81,10.33,24.68,10.33,38.6s-3.45,26.78-10.33,38.6c-6.89,11.81-16.21,21.16-27.95,28.05-11.74,6.89-24.57,10.33-38.49,10.33s-27-3.44-38.81-10.33ZM841.75,196.29c9.14-5.48,16.38-12.97,21.72-22.46,5.34-9.49,8.01-19.79,8.01-30.9s-2.67-21.41-8.01-30.9c-5.35-9.49-12.58-16.98-21.72-22.46-9.14-5.48-19.33-8.23-30.58-8.23s-21.27,2.74-30.48,8.23c-9.21,5.48-16.49,12.97-21.83,22.46-5.35,9.49-8.01,19.79-8.01,30.9s2.67,21.41,8.01,30.9c5.34,9.49,12.62,16.98,21.83,22.46,9.21,5.48,19.37,8.23,30.48,8.23s21.44-2.74,30.58-8.23ZM790.6,149.26c-3.87-1.27-7.52-1.48-10.97-.63-3.45.84-6.58,2.53-9.39,5.06-3.24,3.37-5.48,7.1-6.75,11.18-1.27,4.08-1.41,8.09-.42,12.02.98,3.94,3.02,7.45,6.12,10.55l-6.12,6.12c-4.92-5.2-8.37-10.89-10.33-17.08-1.97-6.19-2.36-12.27-1.16-18.24,1.19-5.97,3.9-11.07,8.12-15.29,4.64-4.64,10.05-7.7,16.24-9.17,6.19-1.48,12.44-1.23,18.77.74,6.33,1.97,12.09,5.41,17.29,10.33l68.97,66.86-10.76,10.76-68.97-66.86c-3.24-2.95-6.79-5.06-10.65-6.33Z"/>
    <path class="cls-1" d="M928.64,214.32c-5.91-3.72-10.48-8.96-13.71-15.71-3.24-6.75-4.85-14.55-4.85-23.41v-63.9h15.4v63.9c0,6.05,1.05,11.36,3.16,15.92,2.11,4.57,5.09,8.01,8.96,10.33,3.87,2.32,8.26,3.48,13.18,3.48,6.61,0,12.55-1.65,17.82-4.96,5.27-3.3,9.46-7.7,12.55-13.18,3.09-5.48,4.64-11.39,4.64-17.72h7.38c0,8.86-1.87,17.23-5.59,25.1-3.73,7.88-8.96,14.13-15.71,18.77-6.75,4.64-14.48,6.96-23.2,6.96-7.45,0-14.13-1.87-20.04-5.59ZM985.79,111.3h15.4v105.45h-15.4v-105.45Z"/>
    <path class="cls-1" d="M1049.38,212.43c-8.65-4.99-15.47-11.77-20.46-20.35-4.99-8.57-7.49-17.93-7.49-28.05s2.49-19.47,7.49-28.05c4.99-8.57,11.81-15.36,20.46-20.35,8.65-4.99,18.03-7.49,28.16-7.49,11.25,0,20.95,2.92,29.11,8.75,8.15,5.84,14.16,13.6,18.03,23.31,3.87,9.7,5.31,20.11,4.32,31.21h-99.55v-14.34h84.15c-.84-6.19-2.78-11.88-5.8-17.08-3.02-5.2-7.14-9.35-12.34-12.44-5.2-3.09-11.18-4.64-17.93-4.64-7.45,0-14.31,1.79-20.56,5.38-6.26,3.59-11.18,8.58-14.76,14.97-3.58,6.4-5.38,13.32-5.38,20.77s1.79,14.34,5.38,20.67c3.59,6.33,8.51,11.32,14.76,14.97,6.25,3.66,13.11,5.48,20.56,5.48,6.47,0,12.37-1.19,17.72-3.59,5.34-2.39,9.77-5.83,13.29-10.33l11.6,9.07c-5.34,6.19-11.67,11-18.98,14.45-7.31,3.44-15.18,5.17-23.62,5.17-10.12,0-19.51-2.5-28.16-7.49Z"/>
    <path class="cls-1" d="M1159.9,214.75c-7.52-3.44-13.32-8.68-17.4-15.71l11.6-9.07c3.8,4.92,8.33,8.68,13.6,11.28,5.27,2.6,10.3,3.9,15.08,3.9,7.03,0,12.72-1.51,17.08-4.53,4.36-3.02,6.54-6.99,6.54-11.92,0-4.64-1.97-8.23-5.91-10.76-3.94-2.53-9.99-4.99-18.14-7.38l-2.11-.63c-7.59-2.25-13.75-4.46-18.45-6.64-4.71-2.18-8.72-5.24-12.02-9.17-3.31-3.93-4.96-9-4.96-15.19s1.55-11.18,4.64-15.82c3.09-4.64,7.45-8.29,13.08-10.97,5.62-2.67,11.95-4.01,18.98-4.01s14.09,1.72,20.77,5.17c6.68,3.45,11.99,8.4,15.92,14.87l-11.6,9.07c-2.95-4.5-6.61-8.01-10.97-10.54-4.36-2.53-9.07-3.8-14.13-3.8-6.19,0-11.32,1.51-15.4,4.53-4.08,3.03-6.12,6.85-6.12,11.49,0,3.09,1.09,5.66,3.27,7.7,2.18,2.04,4.85,3.73,8.01,5.06,3.16,1.34,7.63,2.92,13.39,4.75.7.14,1.33.35,1.9.63,7.45,2.11,13.53,4.32,18.24,6.64,4.71,2.32,8.72,5.52,12.02,9.6,3.3,4.08,4.96,9.21,4.96,15.4s-1.65,11.42-4.96,16.13c-3.3,4.71-7.95,8.4-13.92,11.07-5.98,2.67-12.69,4.01-20.14,4.01s-15.36-1.72-22.88-5.17Z"/>
    <path class="cls-1" d="M1230.02,111.3h65.17v14.97h-65.17v-14.97ZM1259.65,211.79c-5.27-5.41-7.91-12.97-7.91-22.67v-105.24h15.18v105.24c0,5.48,1.23,9.49,3.69,12.02,2.46,2.53,6.15,3.8,11.07,3.8,2.11,0,4.43-.28,6.96-.84,2.53-.56,4.71-1.33,6.54-2.32v14.97c-1.97.98-4.19,1.76-6.64,2.32-2.46.56-4.82.84-7.07.84-9.28,0-16.56-2.71-21.83-8.12Z"/>
  </g>
  <g>
    <path class="cls-1" d="M281.39,154.13l-48.58,84.14c-8.33,14.44-23.73,23.33-40.41,23.33h-97.16c-16.67,0-32.07-8.89-40.41-23.33L6.25,154.13c-8.34-14.43-8.34-32.22,0-46.66L54.83,23.33C63.17,8.89,78.57,0,95.24,0h97.16c16.67,0,32.08,8.89,40.41,23.33l48.58,84.13c8.34,14.44,8.34,32.23,0,46.66Z"/>
    <g>
      <path class="cls-2" d="M80.24,80s21.08-15.66,34.02-12.04c12.95,3.61,3.01,21.38,33.72,9.63,30.71-11.74,54.5-17.76,60.22-16.56,5.72,1.2,27.7,97.25,29.81,99.06,2.11,1.81-25.29-2.41-44.26,7.83-18.97,10.24-39.89,17.84-44.26,10.24-1.29-2.25,2.03-5.8-3.01-9.94-3.29-2.7-20.1-.98-31.09,2.79-7.91,2.71-13.17,4.44-13.17,4.44l-21.98-93.64v-1.81Z"/>
      <path d="M109.47,261.6h-12.98L60.37,78.87l-.81-4.1c-.77-3.91,1.37-7.79,4.78-8.68,3.41-.89,6.8,1.57,7.57,5.47l1.01,5.14,36.54,184.9Z"/>
      <circle cx="64.88" cy="67.54" r="12.2"/>
    </g>
  </g>
</svg>